<svg id="line_color" height="512" viewBox="0 0 74 74" width="512" xmlns="http://www.w3.org/2000/svg" data-name="line color"><path d="m54.961 21.113a2.575 2.575 0 0 1 2.572 2.572v20.985h3v-20.985a5.572 5.572 0 0 0 -11.144 0v9.815a3.054 3.054 0 1 1 -6.107 0v-24.608a6.457 6.457 0 1 0 -12.914 0v19.591a2.65 2.65 0 0 1 -5.3 0v-4.8a5.572 5.572 0 0 0 -11.144 0v20.987h3v-20.985a2.572 2.572 0 0 1 5.144 0v4.8a5.65 5.65 0 0 0 11.3 0v-19.593a3.457 3.457 0 1 1 6.914 0v24.608a6.054 6.054 0 1 0 12.107 0v-9.815a2.575 2.575 0 0 1 2.572-2.572z" fill="#e1e6e9"/><path d="m61.033 45.17h-4v-21.485a2.072 2.072 0 0 0 -4.144 0v9.815a6.554 6.554 0 1 1 -13.107 0v-24.608a2.957 2.957 0 1 0 -5.914 0v19.591a6.15 6.15 0 0 1 -12.3 0v-4.8a2.072 2.072 0 0 0 -4.144 0v21.487h-4v-21.485a6.072 6.072 0 0 1 12.144 0v4.8a2.15 2.15 0 0 0 4.3 0v-19.593a6.957 6.957 0 1 1 13.914 0v24.608a2.554 2.554 0 1 0 5.107 0v-9.815a6.072 6.072 0 0 1 12.144 0zm-3-1h2v-20.485a5.072 5.072 0 0 0 -10.144 0v9.815a3.554 3.554 0 1 1 -7.107 0v-24.608a5.957 5.957 0 1 0 -11.914 0v19.591a3.15 3.15 0 0 1 -6.3 0v-4.8a5.072 5.072 0 0 0 -10.144 0v20.487h2v-20.485a3.072 3.072 0 0 1 6.144 0v4.8a5.15 5.15 0 0 0 10.3 0v-19.593a3.957 3.957 0 1 1 7.914 0v24.608a5.554 5.554 0 1 0 11.107 0v-9.815a3.072 3.072 0 0 1 6.144 0z" fill="#323c6b"/><path d="m21.08 49.06v16.98a5.821 5.821 0 0 1 -5.1 5.87 5.657 5.657 0 0 1 -6.21-5.63v-17.22z" fill="#fcd462"/><path d="m21.08 46.64v2.42h-11.31v-2.42a1.967 1.967 0 0 1 1.97-1.97h7.37a1.974 1.974 0 0 1 1.97 1.97z" fill="#9297ab"/><path d="m64.68 49.06v17.22a5.649 5.649 0 0 1 -6.2 5.63 5.821 5.821 0 0 1 -5.1-5.87v-16.98z" fill="#fcd462"/><path d="m64.68 46.64v2.42h-11.3v-2.42a1.967 1.967 0 0 1 1.97-1.97h7.37a1.965 1.965 0 0 1 1.96 1.97z" fill="#9297ab"/><path d="m21.08 49.06v16.98a5.821 5.821 0 0 1 -5.1 5.87 5.687 5.687 0 0 1 -2.07-.18 5.876 5.876 0 0 0 4.17-5.69v-16.98z" fill="#f7be56"/><path d="m64.68 49.06v17.22a5.649 5.649 0 0 1 -6.2 5.63 4.781 4.781 0 0 1 -.93-.18 5.654 5.654 0 0 0 4.13-5.45v-17.22z" fill="#f7be56"/><g fill="#323c6b"><path d="m45.4 5.417a.5.5 0 0 1 -.454-.29 8.951 8.951 0 0 0 -4.879-4.558.5.5 0 0 1 -.282-.648.5.5 0 0 1 .648-.283 9.948 9.948 0 0 1 5.415 5.068.5.5 0 0 1 -.243.664.505.505 0 0 1 -.205.047z"/><path d="m46.282 9.392a.5.5 0 0 1 -.5-.5 8.83 8.83 0 0 0 -.133-1.476.5.5 0 1 1 .987-.165 9.939 9.939 0 0 1 .146 1.641.5.5 0 0 1 -.5.5z"/><path d="m11.073 74.25a.5.5 0 0 1 -.252-.068 9.188 9.188 0 0 1 -4.551-7.9.5.5 0 0 1 1 0 8.184 8.184 0 0 0 4.055 7.038.5.5 0 0 1 -.252.932z"/><path d="m6.77 64.375a.5.5 0 0 1 -.5-.5v-.708a.5.5 0 0 1 1 0v.708a.5.5 0 0 1 -.5.5z"/><path d="m15.418 72.437a6.09 6.09 0 0 1 -4.133-1.6 6.169 6.169 0 0 1 -2.015-4.557v-17.22a.5.5 0 0 1 .5-.5h11.31a.5.5 0 0 1 .5.5v16.98a6.335 6.335 0 0 1 -5.553 6.368q-.306.029-.609.029zm-5.148-22.877v16.72a5.16 5.16 0 0 0 5.663 5.133 5.328 5.328 0 0 0 4.647-5.373v-16.48z"/><path d="m21.08 49.56h-11.31a.5.5 0 0 1 -.5-.5v-2.42a2.473 2.473 0 0 1 2.47-2.47h7.37a2.473 2.473 0 0 1 2.47 2.47v2.42a.5.5 0 0 1 -.5.5zm-10.81-1h10.31v-1.92a1.472 1.472 0 0 0 -1.47-1.47h-7.37a1.472 1.472 0 0 0 -1.47 1.47z"/><path d="m59.041 72.437q-.3 0-.608-.029a6.335 6.335 0 0 1 -5.553-6.368v-16.98a.5.5 0 0 1 .5-.5h11.3a.5.5 0 0 1 .5.5v17.22a6.174 6.174 0 0 1 -2.014 4.559 6.074 6.074 0 0 1 -4.125 1.598zm-5.161-22.877v16.48a5.328 5.328 0 0 0 4.647 5.373 5.1 5.1 0 0 0 3.966-1.313 5.176 5.176 0 0 0 1.687-3.82v-16.72z"/></g><path d="m56.437 61.816a.65.65 0 0 1 -.649-.649v-6.75a.65.65 0 1 1 1.3 0v6.75a.65.65 0 0 1 -.651.649z" fill="#fff"/><path d="m56.437 64.837a.65.65 0 0 1 -.649-.649v-.588a.65.65 0 1 1 1.3 0v.584a.65.65 0 0 1 -.651.653z" fill="#fff"/><path d="m64.68 49.56h-11.3a.5.5 0 0 1 -.5-.5v-2.42a2.473 2.473 0 0 1 2.47-2.47h7.37a2.467 2.467 0 0 1 2.46 2.47v2.42a.5.5 0 0 1 -.5.5zm-10.8-1h10.3v-1.92a1.467 1.467 0 0 0 -1.46-1.47h-7.37a1.472 1.472 0 0 0 -1.47 1.47z" fill="#323c6b"/></svg>