<svg id="icon" height="512" viewBox="0 0 128 128" width="512" xmlns="http://www.w3.org/2000/svg"><path d="m45.706 25.382 1.086-4.949 34.413.002-7.34 27.718-16.165 4.268z" fill="#9297ab"/><path d="m57.7 53.421a1 1 0 0 1 -.914-.595l-11.994-27.038a1 1 0 0 1 -.062-.62l1.086-4.949a1 1 0 0 1 .977-.786h34.412a1 1 0 0 1 .967 1.256l-7.34 27.718a1 1 0 0 1 -.712.711l-16.166 4.27a1 1 0 0 1 -.254.033zm-10.947-28.145 11.515 25.96 14.78-3.9 6.858-25.9h-32.306z" fill="#2f3a5a"/><path d="m64.648 52.111-3.209-5.7-14.644-25.976-15.813 8.1s-28.187 23.886-29.982 89.534h15.7s2.724-37.23 16.846-56.52l.192-.783c.385 7.333.575 14.492.5 21.418-.039 3.414-.128 6.777-.3 10.075a183.987 183.987 0 0 1 -2.965 25.811h53.043v-31.613z" fill="#d9e2e9"/><g fill="#c1cdd3"><path d="m39.941 82.183c-.039 3.414-.128 6.777-.3 10.075a183.987 183.987 0 0 1 -2.965 25.811h-5.7a183.987 183.987 0 0 0 2.965-25.811c.167-3.3.257-6.661.3-10.075.038-3.915-.385-17.362-.5-21.418 1.515-3.131 6.277 14.488 6.2 21.418z"/><path d="m39.941 82.183c-.039 3.414-.128 6.777-.3 10.075a183.987 183.987 0 0 1 -2.965 25.811h-5.7a183.987 183.987 0 0 0 2.965-25.811c.167-3.3.257-6.661.3-10.075.038-3.915-.385-17.362-.5-21.418 1.515-3.131 6.277 14.488 6.2 21.418z"/><path d="m6.7 118.07h-5.7c1.8-65.65 29.982-89.536 29.982-89.536l15.813-8.1 1.271 2.259-15.716 7.72s-23.85 22.006-25.65 87.657z"/></g><path d="m84.016 119.07h-53.034a1 1 0 0 1 -.982-1.19 183.907 183.907 0 0 0 2.947-25.67c.157-3.1.253-6.383.294-10.037.062-5.765-.054-11.8-.353-18.37-9.2 14.489-12.949 36.511-15.194 54.391a1 1 0 0 1 -.992.875h-15.702a1 1 0 0 1 -1-1.027c1.787-65.342 30.051-90.029 30.336-90.271a1 1 0 0 1 .19-.127l15.813-8.1a1 1 0 0 1 1.327.4l37.221 66.022a1 1 0 0 1 .129.491v31.613a1 1 0 0 1 -1 1zm-51.826-2h50.826v-30.35l-19.239-34.12-17.377-30.837-14.846 7.6c-1.654 1.485-27.554 25.822-29.524 87.706h13.791c2.422-19 6.589-42.384 17.11-56.89a1 1 0 0 1 1.809.534c.409 7.784.573 14.811.5 21.481-.041 3.681-.138 6.99-.3 10.115a188.374 188.374 0 0 1 -2.751 24.761z" fill="#2f3a5a"/><path d="m89.715 24.8v93.27h-58.733a183.987 183.987 0 0 0 2.965-25.811c.167-3.3.257-6.661.3-10.075l27.2-35.771 19.758-25.978 5.519 2.824z" fill="#d9e2e9"/><path d="m89.715 119.07h-58.733a1 1 0 0 1 -.982-1.19 183.907 183.907 0 0 0 2.947-25.67c.157-3.1.253-6.383.294-10.037a1.006 1.006 0 0 1 .2-.594l46.968-61.75a1 1 0 0 1 1.251-.285l8.513 4.365a1 1 0 0 1 .542.889v93.272a1 1 0 0 1 -1 1zm-57.525-2h56.525v-91.661l-7.221-3.7-46.256 60.817c-.043 3.548-.139 6.752-.292 9.784a188.374 188.374 0 0 1 -2.757 24.76z" fill="#2f3a5a"/><path d="m94.98 61.575c14.12 19.291 16.32 56.494 16.32 56.494h15.7c-1.795-65.647-29.982-89.535-29.982-89.535l-7.3-3.735-2.991-1.54-22.079 28.852-30.7 40.148a183.987 183.987 0 0 1 -2.965 25.811h66.035c-4.043-16.284-4.663-36.169-3.223-57.955z" fill="#d9e2e9"/><path d="m97.018 118.07h-66.036c.09-.462.18-.937.257-1.412h58.553c-4.043-16.287.944-58.864 4-56.543.003 0-.15 44.363 3.226 57.955z" fill="#c1cdd3"/><path d="m127 118.07h-15.71s-.038-.5-.115-1.412h8.587c-1.784-65.65-24-86.472-24-86.472l-10.296-5.286 1.258-1.643 2.991 1.54 7.3 3.735s28.185 23.887 29.985 89.538z" fill="#c1cdd3"/><path d="m97.018 119.07h-66.036a1 1 0 0 1 -.982-1.19 183.907 183.907 0 0 0 2.947-25.67 1 1 0 0 1 .205-.558l52.777-69a1 1 0 0 1 1.25-.282l10.293 5.275a1 1 0 0 1 .19.127c.285.242 28.549 24.932 30.336 90.271a1 1 0 0 1 -1 1.027h-15.698a1 1 0 0 1 -1-.927c-.026-.361-2.737-35.476-15.71-54.659-1.266 22.247-.15 40.05 3.4 54.346a1 1 0 0 1 -.971 1.241zm-64.828-2h63.557c-3.528-14.993-4.493-33.67-2.947-57.021a1 1 0 0 1 1.9-.349l.614 1.341c13 17.85 16.374 50.028 16.9 56.029h13.756c-1.97-61.977-27.87-86.228-29.519-87.703l-9.439-4.838-52.081 68.09a187.926 187.926 0 0 1 -2.742 24.451z" fill="#2f3a5a"/><path d="m46.792 20.433-5.513 2.827 15.594 29.161 4.569-6.005z" fill="#d9e2e9"/><path d="m56.873 53.421h-.079a1 1 0 0 1 -.8-.525l-15.594-29.165a1 1 0 0 1 .426-1.361l5.513-2.827a1 1 0 0 1 1.327.4l14.647 25.981a1 1 0 0 1 -.075 1.1l-4.568 6.006a1 1 0 0 1 -.797.391zm-14.232-29.735 14.38 26.891 3.227-4.243-13.855-24.572z" fill="#2f3a5a"/><path d="m33.175 86.019h61.139v6.515h-61.139z" fill="#9297ab"/><path d="m94.314 93.535h-61.138a1 1 0 0 1 -1-1v-6.516a1 1 0 0 1 1-1h61.138a1 1 0 0 1 1 1v6.516a1 1 0 0 1 -1 1zm-60.139-2h59.139v-4.516h-59.138z" fill="#2f3a5a"/><path d="m72.379 109.751-4.75-.938a23.512 23.512 0 0 0 -4.853-19.425l3.751-3.062a28.354 28.354 0 0 1 5.852 23.425z" fill="#9297ab"/><path d="m72.379 110.751a1.008 1.008 0 0 1 -.194-.019l-4.75-.938a1 1 0 0 1 -.787-1.175 22.444 22.444 0 0 0 -4.648-18.599 1 1 0 0 1 .142-1.407l3.751-3.062a1 1 0 0 1 1.407.142 29.263 29.263 0 0 1 6.06 24.251 1 1 0 0 1 -.981.806zm-3.595-2.729 2.79.551a27.256 27.256 0 0 0 -5.2-20.829l-2.2 1.8a24.427 24.427 0 0 1 4.61 18.477z" fill="#2f3a5a"/><path d="m53.627 113.975 5.614-1.109a27.789 27.789 0 0 1 5.736-22.959l-4.433-3.619a33.512 33.512 0 0 0 -6.917 27.687z" fill="#9297ab"/><path d="m53.627 114.975a1 1 0 0 1 -.981-.806 34.4 34.4 0 0 1 7.124-28.513 1 1 0 0 1 1.407-.143l4.433 3.619a1 1 0 0 1 .142 1.407 26.707 26.707 0 0 0 -5.529 22.133 1 1 0 0 1 -.788 1.175l-5.613 1.109a.991.991 0 0 1 -.195.019zm7.073-27.27a32.4 32.4 0 0 0 -6.27 25.092l3.653-.722a28.691 28.691 0 0 1 5.5-22.015z" fill="#2f3a5a"/><rect fill="#9297ab" height="9.723" rx="1.786" transform="matrix(.663 -.749 .749 .663 -45.076 76.819)" width="9.723" x="57.914" y="83.608"/><path d="m63.037 95.6a2.775 2.775 0 0 1 -1.845-.7l-4.605-4.078a2.79 2.79 0 0 1 -.239-3.933l4.078-4.605a2.791 2.791 0 0 1 3.934-.238l4.6 4.077a2.785 2.785 0 0 1 .24 3.934l-4.077 4.6a2.782 2.782 0 0 1 -2.086.943zm-.524-12.253a.786.786 0 0 0 -.59.265l-4.077 4.6a.788.788 0 0 0 .067 1.11l4.6 4.078a.788.788 0 0 0 1.11-.068l4.077-4.6a.784.784 0 0 0 -.066-1.109l-4.6-4.078a.782.782 0 0 0 -.521-.203z" fill="#2f3a5a"/></svg>