<svg id="color_line" height="512" viewBox="0 0 74 74" width="512" xmlns="http://www.w3.org/2000/svg" data-name="color line"><path d="m18.334 41.411a35.475 35.475 0 0 0 11.166-10.246 17.835 17.835 0 0 0 -8.759-5.194l-11.556 10.885a2.589 2.589 0 0 1 -3.77-3.535c2.785-3.344 8.275-9.96 10.285-12.561a2.931 2.931 0 0 0 .453-.489c4.2-4.535 14.5-.335 16.876.906a45.839 45.839 0 0 1 11.891 8.548 27.664 27.664 0 0 1 6.41 11.347l.7 2.385c-13.424 5.134-25.909 7.771-33.696-2.046z" fill="#fcd462"/><path d="m46.341 38.26a.6.6 0 0 1 -.531-.319q-.239-.45-.5-.892a.6.6 0 1 1 1.037-.6q.268.461.519.932a.6.6 0 0 1 -.249.811.593.593 0 0 1 -.276.068z" fill="#fff"/><path d="m44.3 35a.6.6 0 0 1 -.485-.246 24.674 24.674 0 0 0 -2.059-2.462 33.858 33.858 0 0 0 -2.946-2.729q-.526-.435-1.062-.847a.6.6 0 1 1 .73-.951q.554.426 1.1.873a35.191 35.191 0 0 1 3.049 2.825 25.854 25.854 0 0 1 2.16 2.582.6.6 0 0 1 -.487.955z" fill="#fff"/><path d="m56.333 18.455c5.262-3.079 11.636-1.707 14.38 2.98s.816 10.917-4.446 14-12.267 2.073-15.011-2.615-.185-11.286 5.077-14.365z" fill="#fcd462"/><path d="m51.35 41.14a26.988 26.988 0 0 0 -5.43-8.54 45.817 45.817 0 0 0 -11.89-8.54c-2.37-1.25-12.67-5.45-16.88-.91a3.013 3.013 0 0 1 -.45.49c-2.01 2.6-7.5 9.22-10.28 12.56a2.608 2.608 0 0 0 -.49.89 1.524 1.524 0 0 1 -.16-.11 2.574 2.574 0 0 1 -.35-3.66c2.78-3.34 8.27-9.96 10.28-12.56a3.011 3.011 0 0 0 .45-.49c4.21-4.53 14.51-.34 16.88.91a45.628 45.628 0 0 1 11.89 8.55 27.6 27.6 0 0 1 6.41 11.34z" fill="#f7be56"/><path d="m71.83 24.53c-.04-.08-.08-.15-.12-.22-2.74-4.68-9.11-6.06-14.38-2.98-4.24 2.48-6.72 7.25-6.09 11.46-2.72-4.69-.16-11.27 5.09-14.34 5.27-3.07 11.64-1.7 14.38 2.99a8.731 8.731 0 0 1 1.12 3.09z" fill="#f7be56"/><g fill="#323c6b"><path d="m10.622 23.091-.419-.277-.387-.314.465-.564a.5.5 0 1 1 .771.636z"/><path d="m12.266 20.792a.5.5 0 0 1 -.388-.816l1.542-1.89a10.12 10.12 0 0 1 6.219-3.912.5.5 0 1 1 .189.981 9.143 9.143 0 0 0 -5.619 3.545l-1.556 1.908a.5.5 0 0 1 -.387.184z"/><path d="m58.738 14.767a.5.5 0 0 1 -.122-.985c.39-.1.78-.187 1.174-.254a.5.5 0 1 1 .168.985c-.368.063-.733.147-1.1.239a.5.5 0 0 1 -.12.015z"/><path d="m72.056 18.713a.5.5 0 0 1 -.382-.177 12.064 12.064 0 0 0 -8.722-4.212.5.5 0 0 1 -.474-.525.479.479 0 0 1 .522-.474 13.057 13.057 0 0 1 9.435 4.564.5.5 0 0 1 -.382.823z"/><path d="m32.736 48.558c-5.7 0-10.827-1.835-14.794-6.836a.5.5 0 0 1 .153-.75 35.033 35.033 0 0 0 10.755-9.749 17.95 17.95 0 0 0 -7.957-4.708l-11.365 10.705a3.175 3.175 0 0 1 -4.074.151 3.086 3.086 0 0 1 -.423-4.371c5.379-6.465 8.836-10.687 10.275-12.547a.5.5 0 0 1 .085-.085 2.447 2.447 0 0 0 .356-.39c4.289-4.631 14.331-.911 17.514.755a45.862 45.862 0 0 1 12.02 8.646 28.283 28.283 0 0 1 6.529 11.552l.7 2.385a.5.5 0 0 1 -.3.608c-6.68 2.555-13.41 4.634-19.474 4.634zm-13.637-7c7.725 9.153 20.057 6.246 32.322 1.6l-.571-1.941a27.3 27.3 0 0 0 -6.291-11.147 44.93 44.93 0 0 0 -11.759-8.451c-2.448-1.281-12.389-5.2-16.275-1.009a3.42 3.42 0 0 1 -.459.5c-1.466 1.89-4.922 6.107-10.266 12.531a2.062 2.062 0 0 0 -.477 1.526 2.09 2.09 0 0 0 .763 1.43 2.142 2.142 0 0 0 2.756-.1l11.558-10.89a.5.5 0 0 1 .427-.129 18.2 18.2 0 0 1 9.031 5.337.5.5 0 0 1 .06.627 35.859 35.859 0 0 1 -10.818 10.115z"/><path d="m59.764 37.715a10.119 10.119 0 0 1 -8.939-4.643 9.542 9.542 0 0 1 -.5-8.209 13.393 13.393 0 0 1 5.757-6.84c5.429-3.174 12.186-1.758 15.064 3.16a9.816 9.816 0 0 1 .824 8 11.962 11.962 0 0 1 -5.449 6.676 13.434 13.434 0 0 1 -6.757 1.856zm-3.178-18.829a12.376 12.376 0 0 0 -5.323 6.319 8.563 8.563 0 0 0 .425 7.362c2.512 4.292 9.206 5.433 14.326 2.433a10.96 10.96 0 0 0 5-6.113 8.826 8.826 0 0 0 -.733-7.2c-2.6-4.443-8.744-5.7-13.7-2.8z"/></g><path d="m3 56.214c4.6 0 4.6 3.53 9.191 3.53s4.594-3.53 9.188-3.53 4.6 3.53 9.191 3.53 4.6-3.53 9.194-3.53 4.6 3.53 9.191 3.53 4.6-3.53 9.2-3.53 4.6 3.53 9.2 3.53v-15.515c-4.6 0-4.6-3.53-9.2-3.53s-4.6 3.53-9.2 3.53-4.6-3.53-9.191-3.53-4.6 3.53-9.194 3.53-4.6-3.53-9.191-3.53-4.594 3.53-9.188 3.53-4.591-3.529-9.191-3.529z" fill="#89c5cd"/><path d="m67.35 44.23v15.51a7.028 7.028 0 0 1 -1.69-.19v-12.32c-4.6 0-4.6-3.53-9.2-3.53s-4.59 3.53-9.19 3.53-4.6-3.53-9.19-3.53-4.6 3.53-9.2 3.53-4.59-3.53-9.19-3.53-4.59 3.53-9.19 3.53c-3.94 0-4.5-2.61-7.5-3.34v-3.19c4.6 0 4.6 3.53 9.19 3.53s4.6-3.53 9.19-3.53 4.59 3.53 9.19 3.53 4.6-3.53 9.19-3.53 4.6 3.53 9.19 3.53 4.6-3.53 9.2-3.53 4.6 3.53 9.2 3.53z" fill="#6eaaad"/><path d="m67.349 44.729a7.148 7.148 0 0 1 -4.9-1.868 6.379 6.379 0 0 0 -8.588 0 7.364 7.364 0 0 1 -9.8 0 6.373 6.373 0 0 0 -8.583 0 7.362 7.362 0 0 1 -9.8 0 6.37 6.37 0 0 0 -8.58 0 7.132 7.132 0 0 1 -4.9 1.869 7.14 7.14 0 0 1 -4.9-1.868 6.223 6.223 0 0 0 -4.298-1.662.5.5 0 0 1 0-1 7.14 7.14 0 0 1 4.9 1.868 6.37 6.37 0 0 0 8.58 0 7.358 7.358 0 0 1 9.8 0 6.373 6.373 0 0 0 8.583 0 7.362 7.362 0 0 1 9.8 0 6.375 6.375 0 0 0 8.584 0 7.369 7.369 0 0 1 9.807 0 6.229 6.229 0 0 0 4.294 1.662.5.5 0 0 1 0 1z" fill="#323c6b"/><path d="m67.349 60.244a7.145 7.145 0 0 1 -4.9-1.869 6.379 6.379 0 0 0 -8.588 0 7.362 7.362 0 0 1 -9.8 0 6.373 6.373 0 0 0 -8.583 0 7.361 7.361 0 0 1 -9.8 0 6.369 6.369 0 0 0 -8.58 0 7.134 7.134 0 0 1 -4.9 1.869 7.137 7.137 0 0 1 -4.9-1.869 6.223 6.223 0 0 0 -4.298-1.661.5.5 0 0 1 0-1 7.137 7.137 0 0 1 4.9 1.869 6.369 6.369 0 0 0 8.58 0 7.357 7.357 0 0 1 9.8 0 6.373 6.373 0 0 0 8.583 0 7.361 7.361 0 0 1 9.8 0 6.374 6.374 0 0 0 8.584 0 7.367 7.367 0 0 1 9.807 0 6.229 6.229 0 0 0 4.294 1.662.5.5 0 0 1 0 1z" fill="#323c6b"/><path d="m67.349 52.486a7.148 7.148 0 0 1 -4.9-1.868 6.379 6.379 0 0 0 -8.588 0 7.364 7.364 0 0 1 -9.8 0 6.373 6.373 0 0 0 -8.583 0 7.362 7.362 0 0 1 -9.8 0 6.37 6.37 0 0 0 -8.58 0 7.132 7.132 0 0 1 -4.9 1.869 7.14 7.14 0 0 1 -4.9-1.868 6.223 6.223 0 0 0 -4.298-1.662.5.5 0 0 1 0-1 7.14 7.14 0 0 1 4.9 1.868 6.37 6.37 0 0 0 8.58 0 7.358 7.358 0 0 1 9.8 0 6.373 6.373 0 0 0 8.583 0 7.362 7.362 0 0 1 9.8 0 6.375 6.375 0 0 0 8.584 0 7.369 7.369 0 0 1 9.807 0 6.229 6.229 0 0 0 4.294 1.662.5.5 0 0 1 0 1z" fill="#323c6b"/></svg>