<svg height="512" viewBox="0 0 64 64" width="512" xmlns="http://www.w3.org/2000/svg"><g id="Flat"><g id="Flat-2" data-name="Flat"><g><path d="m51 61h-45a1 1 0 0 1 0-2h45a1 1 0 0 1 0 2z" fill="#4891d3"/><path d="m25 5h-21a1 1 0 0 1 0-2h21a1 1 0 0 1 0 2z" fill="#aae1f9"/><path d="m36 30h-15l3-27h19z" fill="#f9e109"/><path d="m29.656 9.092.677-6.092h-6.333l-3 27h15l1.827-7.048a13.421 13.421 0 0 1 -8.171-13.86z" fill="#fcbc04"/><path d="m18.95 25.908-5.94 10.8a8 8 0 0 0 3.432 11.011l18.958 9.481a35.993 35.993 0 0 0 16.1 3.8h3.636a5.866 5.866 0 0 0 5.864-5.866 5.864 5.864 0 0 0 -3.893-5.524 22.42 22.42 0 0 1 -13.633-13.746l-3.3-9.491a2.7 2.7 0 0 0 -4.1-1.325 12.642 12.642 0 0 1 -14.26.162 2 2 0 0 0 -2.864.698z" fill="#f89c8d"/><path d="m57.439 49.758a6.288 6.288 0 0 1 -2.889.341l-3.374-.413a36.009 36.009 0 0 1 -15.52-5.728l-2.533-1.679a15.988 15.988 0 0 1 -7.032-15.249 12.6 12.6 0 0 1 -4.276-1.82 2 2 0 0 0 -2.862.7l-5.94 10.8a8 8 0 0 0 3.432 11.011l18.955 9.479a35.993 35.993 0 0 0 16.1 3.8h3.636a5.855 5.855 0 0 0 2.3-11.242z" fill="#f8664f"/><path d="m54.772 57.136-3.609-.443a35.992 35.992 0 0 1 -15.515-5.737l-17.659-11.721a7.971 7.971 0 0 1 -3.456-5.3l-1.523 2.775a8 8 0 0 0 3.432 11.011l18.958 9.479a35.993 35.993 0 0 0 16.1 3.8h3.636a5.8 5.8 0 0 0 5.685-7.24 5.866 5.866 0 0 1 -6.049 3.376z" fill="#57b7eb"/><path d="m23 30 9 7-3 1 3 6-10-7 4-1z" fill="#f9e109"/><path d="m32 44-2.549-5.1a15.971 15.971 0 0 1 -3.033-6.243l-3.418-2.657 3 6-4 1z" fill="#fcbc04"/><path d="m56.134 59h-3.634a35.993 35.993 0 0 1 -16.1-3.8l-18.958-9.479a8 8 0 0 1 -3.9-9.986l-.536.975a8 8 0 0 0 3.432 11.011l18.962 9.479a35.993 35.993 0 0 0 16.1 3.8h3.636a5.864 5.864 0 0 0 5.647-4.3 5.849 5.849 0 0 1 -4.649 2.3z" fill="#4891d3"/><g fill="#f9e109"><path d="m40 35a1 1 0 0 1 -.241-1.97l4-1a1 1 0 1 1 .484 1.94l-4 1a1.017 1.017 0 0 1 -.243.03z"/><path d="m42 39a1 1 0 0 1 -.241-1.97l4-1a1 1 0 1 1 .484 1.94l-4 1a1.017 1.017 0 0 1 -.243.03z"/><path d="m44 43a1 1 0 0 1 -.241-1.97l4-1a1 1 0 1 1 .484 1.94l-4 1a1.017 1.017 0 0 1 -.243.03z"/></g><path d="m20 46a1 1 0 0 1 -.554-.168l-3-2a1 1 0 0 1 1.11-1.664l3 2a1 1 0 0 1 -.556 1.832z" fill="#aae1f9"/><circle cx="37" cy="35" fill="#f8664f" r="1"/><circle cx="38" cy="39" fill="#f8664f" r="1"/><circle cx="41" cy="43" fill="#f8664f" r="1"/><path d="m47 47a1 1 0 0 1 -.241-1.97l4-1a1 1 0 1 1 .484 1.94l-4 1a1.017 1.017 0 0 1 -.243.03z" fill="#f9e109"/><circle cx="44" cy="47" fill="#f8664f" r="1"/><path d="m20 10h-8a1 1 0 0 1 0-2h8a1 1 0 0 1 0 2z" fill="#57b7eb"/><path d="m18 16h-5a1 1 0 0 1 0-2h5a1 1 0 0 1 0 2z" fill="#4891d3"/><path d="m17 22h-10a1 1 0 0 1 0-2h10a1 1 0 0 1 0 2z" fill="#aae1f9"/><path d="m24 56h-12a1 1 0 0 1 0-2h12a1 1 0 0 1 0 2z" fill="#57b7eb"/><path d="m13 51h-7a1 1 0 0 1 0-2h7a1 1 0 0 1 0 2z" fill="#aae1f9"/><path d="m13 29h-9a1 1 0 0 1 0-2h9a1 1 0 0 1 0 2z" fill="#57b7eb"/><path d="m11 35h-6a1 1 0 0 1 0-2h6a1 1 0 0 1 0 2z" fill="#aae1f9"/></g></g></g></svg>