<?xml version="1.0"?>
<svg xmlns="http://www.w3.org/2000/svg" viewBox="0 0 128 128" width="512" height="512"><g id="number"><text transform="translate(56.724 -510.265)" font-size="40" fill="#24253a" font-family="MyriadPro-Regular, Myriad Pro" letter-spacing="0.002em">6<tspan x="-10.3" y="228">16</tspan><tspan x="-10.3" y="456">26</tspan><tspan x="-10.3" y="684">36</tspan><tspan x="-10.3" y="912">46</tspan><tspan x="-10.3" y="1140">56</tspan><tspan x="-10.3" y="1368">66</tspan><tspan x="-10.3" y="1596">76</tspan><tspan x="-10.3" y="1824">86</tspan><tspan x="-10.3" y="2052">96</tspan><tspan x="-20.599" y="2280">106</tspan><tspan x="-20.599" y="2508">116</tspan><tspan x="-20.599" y="2736">126</tspan><tspan x="-20.599" y="2964">136</tspan><tspan x="-20.599" y="3192">146</tspan><tspan x="-20.599" y="3420">156</tspan><tspan x="-20.599" y="3648">166</tspan><tspan x="-20.599" y="3876">176</tspan><tspan x="-20.599" y="4104">186</tspan><tspan x="-20.599" y="4332">196</tspan><tspan x="-20.599" y="4560">206</tspan><tspan x="-20.599" y="4788">216</tspan><tspan x="-20.599" y="5016">226</tspan><tspan x="-20.599" y="5244">236</tspan><tspan x="-20.599" y="5472">246</tspan></text></g><g id="icon"><rect x="33.478" y="-12.439" width="61.049" height="152.877" rx="30.524" ry="30.524" transform="translate(64 -26.511) rotate(45)" fill="#ffa245"/><g opacity="0.5"><path d="M118.06,53.118,53.121,118.057a30.55,30.55,0,0,1-50.9-30.182A30.538,30.538,0,0,0,53.734,103.4l64.938-64.938a30.282,30.282,0,0,0,7.7-12.971A29.577,29.577,0,0,1,127,31.542,30.419,30.419,0,0,1,118.06,53.118Z" fill="#f28623"/></g><path d="M31.536,127.99A31.525,31.525,0,0,1,9.245,74.174L74.178,9.242A31.524,31.524,0,0,1,118.76,53.824L53.827,118.757A31.319,31.319,0,0,1,31.536,127.99ZM96.469,2.008a29.329,29.329,0,0,0-20.877,8.648L10.659,75.588a29.525,29.525,0,0,0,0,41.754h0a29.525,29.525,0,0,0,41.754,0L117.346,52.41a29.525,29.525,0,0,0-20.877-50.4Z" fill="#2f3a5a"/><line x1="69.413" y1="32.958" x2="94.036" y2="57.582" fill="#ffa245"/><path d="M94.036,58.582a1,1,0,0,1-.707-.293L68.705,33.666a1,1,0,0,1,1.414-1.414L94.743,56.875a1,1,0,0,1-.707,1.707Z" fill="#2f3a5a"/><rect x="85.321" y="53.963" width="20.839" height="9.871" rx="2.467" ry="2.467" transform="translate(-13.606 84.95) rotate(-45)" fill="#9297ab"/><rect x="58.684" y="27.326" width="20.839" height="9.871" rx="2.467" ry="2.467" transform="translate(-2.572 58.312) rotate(-45)" fill="#9297ab"/><line x1="32.574" y1="69.797" x2="57.198" y2="94.421" fill="#ffa245"/><path d="M57.2,95.421a1,1,0,0,1-.707-.293L31.866,70.5A1,1,0,0,1,33.28,69.09L57.9,93.714a1,1,0,0,1-.707,1.707Z" fill="#2f3a5a"/><rect x="48.482" y="90.802" width="20.839" height="9.871" rx="2.467" ry="2.467" transform="translate(-50.445 69.69) rotate(-45)" fill="#9297ab"/><rect x="21.845" y="64.165" width="20.839" height="9.871" rx="2.467" ry="2.467" transform="translate(-39.411 43.053) rotate(-45)" fill="#9297ab"/><path d="M104.851,56.763,93.6,68.014a2.467,2.467,0,0,1-3.488,0l-3.488-3.488a2.467,2.467,0,0,1,0-3.488l.693-.693a2.467,2.467,0,0,1,3.488,0h0a2.467,2.467,0,0,0,3.488,0l7.069-7.069a2.467,2.467,0,0,1,3.488,0h0A2.467,2.467,0,0,1,104.851,56.763Z" fill="#84879c"/><path d="M78.215,30.127l-11.25,11.25a2.467,2.467,0,0,1-3.488,0l-3.488-3.488a2.467,2.467,0,0,1,0-3.488l.693-.693a2.467,2.467,0,0,1,3.488,0h0a2.467,2.467,0,0,0,3.488,0l7.069-7.069a2.467,2.467,0,0,1,3.488,0h0A2.467,2.467,0,0,1,78.215,30.127Z" fill="#84879c"/><path d="M68.016,93.6l-11.25,11.25a2.467,2.467,0,0,1-3.488,0l-3.488-3.488a2.467,2.467,0,0,1,0-3.488l.693-.693a2.467,2.467,0,0,1,3.488,0h0a2.467,2.467,0,0,0,3.488,0l7.069-7.069a2.467,2.467,0,0,1,3.488,0h0A2.467,2.467,0,0,1,68.016,93.6Z" fill="#84879c"/><path d="M41.38,66.962l-11.25,11.25a2.467,2.467,0,0,1-3.488,0l-3.488-3.488a2.467,2.467,0,0,1,0-3.488l.693-.693a2.467,2.467,0,0,1,3.488,0h0a2.467,2.467,0,0,0,3.488,0l7.069-7.069a2.467,2.467,0,0,1,3.488,0h0A2.467,2.467,0,0,1,41.38,66.962Z" fill="#84879c"/><path d="M91.862,69.734a3.447,3.447,0,0,1-2.451-1.015L85.92,65.227a3.466,3.466,0,0,1,0-4.9L97.167,49.078a3.55,3.55,0,0,1,4.9,0l3.491,3.492a3.466,3.466,0,0,1,0,4.9L94.313,68.719A3.442,3.442,0,0,1,91.862,69.734Zm7.756-19.672a1.459,1.459,0,0,0-1.037.43L87.334,61.739a1.466,1.466,0,0,0,0,2.074L90.825,67.3a1.5,1.5,0,0,0,2.074,0l11.247-11.247a1.466,1.466,0,0,0,0-2.074h0l-3.491-3.492A1.459,1.459,0,0,0,99.618,50.062Z" fill="#2f3a5a"/><path d="M65.225,43.1a3.453,3.453,0,0,1-2.45-1.013L59.282,38.59a3.47,3.47,0,0,1,0-4.9L70.53,22.44a3.471,3.471,0,0,1,4.9,0l3.491,3.492h0a3.47,3.47,0,0,1,0,4.9L67.677,42.082A3.459,3.459,0,0,1,65.225,43.1Zm7.757-19.669a1.463,1.463,0,0,0-1.037.429L60.7,35.1a1.469,1.469,0,0,0,0,2.074l3.492,3.492a1.468,1.468,0,0,0,2.074,0L77.51,29.42a1.469,1.469,0,0,0,0-2.074l-3.491-3.492A1.464,1.464,0,0,0,72.981,23.426Z" fill="#2f3a5a"/><path d="M55.023,106.573h0a3.442,3.442,0,0,1-2.451-1.016l-3.491-3.491a3.467,3.467,0,0,1,0-4.9L60.328,85.917a3.551,3.551,0,0,1,4.9,0l3.491,3.492a3.466,3.466,0,0,1,0,4.9L57.475,105.558A3.443,3.443,0,0,1,55.023,106.573ZM62.779,86.9a1.459,1.459,0,0,0-1.037.43L50.5,98.578a1.466,1.466,0,0,0,0,2.074l3.491,3.492a1.459,1.459,0,0,0,1.037.43h0a1.458,1.458,0,0,0,1.037-.429L67.308,92.9a1.466,1.466,0,0,0,0-2.074h0l-3.491-3.492A1.459,1.459,0,0,0,62.779,86.9Z" fill="#2f3a5a"/><path d="M28.387,79.937a3.442,3.442,0,0,1-2.451-1.016l-3.492-3.492a3.47,3.47,0,0,1,0-4.9L33.69,59.279a3.471,3.471,0,0,1,4.9,0l3.492,3.492h0a3.47,3.47,0,0,1,0,4.9L30.838,78.921A3.445,3.445,0,0,1,28.387,79.937Zm7.755-19.671a1.462,1.462,0,0,0-1.037.429L23.857,71.941a1.469,1.469,0,0,0,0,2.074l3.492,3.492a1.5,1.5,0,0,0,2.074,0L40.671,66.259a1.469,1.469,0,0,0,0-2.074l-3.492-3.492A1.462,1.462,0,0,0,36.142,60.265Z" fill="#2f3a5a"/><rect x="75.139" y="41.345" width="14.566" height="8.469" rx="2.467" ry="2.467" transform="translate(56.371 -44.931) rotate(45)" fill="#d9e2e9"/><path d="M84.577,53.7a3.458,3.458,0,0,1-2.451-1.013h0l-6.812-6.812a3.47,3.47,0,0,1,0-4.9l2.5-2.5a3.55,3.55,0,0,1,4.9,0l6.813,6.812a3.47,3.47,0,0,1,0,4.9l-2.5,2.5A3.455,3.455,0,0,1,84.577,53.7ZM83.54,51.272a1.468,1.468,0,0,0,2.074,0l2.5-2.5a1.469,1.469,0,0,0,0-2.074L81.3,39.887a1.5,1.5,0,0,0-2.074,0l-2.5,2.5a1.469,1.469,0,0,0,0,2.074Z" fill="#2f3a5a"/><rect x="38.106" y="78.378" width="14.566" height="8.469" rx="2.467" ry="2.467" transform="translate(71.71 -7.898) rotate(45)" fill="#d9e2e9"/><path d="M47.545,90.735a3.443,3.443,0,0,1-2.451-1.016h0l-6.812-6.812a3.467,3.467,0,0,1,0-4.9l2.5-2.5a3.471,3.471,0,0,1,4.9,0L52.5,82.317a3.47,3.47,0,0,1,0,4.9L50,89.72A3.445,3.445,0,0,1,47.545,90.735ZM43.233,76.491a1.463,1.463,0,0,0-1.037.429l-2.5,2.5a1.466,1.466,0,0,0,0,2.074l6.812,6.812h0a1.5,1.5,0,0,0,2.074,0l2.5-2.5a1.469,1.469,0,0,0,0-2.074l-6.812-6.812A1.464,1.464,0,0,0,43.233,76.491Z" fill="#2f3a5a"/></g></svg>
