<svg id="icon" height="512" viewBox="0 0 128 128" width="512" xmlns="http://www.w3.org/2000/svg"><rect fill="#9297ab" height="6.762" rx=".443" width="126" x="1" y="60.619"/><path d="m127 61.059v5.882a.443.443 0 0 1 -.447.437h-125.105a.443.443 0 0 1 -.448-.437v-2.414h124.967a.443.443 0 0 0 .447-.437v-3.468h.139a.443.443 0 0 1 .447.437z" fill="#707583"/><path d="m126.558 68.381h-125.116a1.445 1.445 0 0 1 -1.442-1.443v-5.876a1.445 1.445 0 0 1 1.442-1.443h125.116a1.445 1.445 0 0 1 1.442 1.443v5.876a1.445 1.445 0 0 1 -1.442 1.443zm-124.558-2h124v-4.762h-124z" fill="#2f3a5a"/><path d="m6.577 41.615h30.024v44.77h-30.024z" fill="#84879c"/><path d="m36.602 41.614v44.772h-30.027v-5.654h25.227v-39.118z" fill="#9297ab"/><g fill="#2f3a5a"><path d="m36.6 87.384h-30.023a1 1 0 0 1 -1-1v-44.769a1 1 0 0 1 1-1h30.023a1 1 0 0 1 1 1v44.77a1 1 0 0 1 -1 .999zm-29.024-2h28.024v-42.769h-28.023z"/><path d="m16.795 87.384a1 1 0 0 1 -1-1v-44.769a1 1 0 0 1 2 0v44.77a1 1 0 0 1 -1 .999z"/><path d="m26.838 87.384a1 1 0 0 1 -1-1v-44.769a1 1 0 0 1 2 0v44.77a1 1 0 0 1 -1 .999z"/></g><path d="m92.479 41.615h30.024v44.77h-30.024z" fill="#84879c"/><path d="m122.504 41.614v44.772h-30.027v-5.654h25.227v-39.118z" fill="#9297ab"/><path d="m122.5 87.384h-30.021a1 1 0 0 1 -1-1v-44.769a1 1 0 0 1 1-1h30.021a1 1 0 0 1 1 1v44.77a1 1 0 0 1 -1 .999zm-29.024-2h28.024v-42.769h-28.021z" fill="#2f3a5a"/><path d="m102.7 87.384a1 1 0 0 1 -1-1v-44.769a1 1 0 1 1 2 0v44.77a1 1 0 0 1 -1 .999z" fill="#2f3a5a"/><path d="m112.739 87.384a1 1 0 0 1 -1-1v-44.769a1 1 0 0 1 2 0v44.77a1 1 0 0 1 -1 .999z" fill="#2f3a5a"/></svg>