<svg id="Capa_1" enable-background="new 0 0 473.02 473.02" height="512" viewBox="0 0 473.02 473.02" width="512" xmlns="http://www.w3.org/2000/svg"><g><path d="m408.605 433.964h-4.254c-1.88 0-3.403-1.524-3.403-3.403s1.524-3.403 3.403-3.403h4.254c1.88 0 3.403 1.524 3.403 3.403s-1.523 3.403-3.403 3.403z" fill="#323c6b"/><path d="m430.175 433.964h-3.492c-1.88 0-3.403-1.524-3.403-3.403s1.524-3.403 3.403-3.403h3.492c13.856.023 27.166-5.405 37.055-15.111 1.346-1.316 3.503-1.291 4.819.054 1.316 1.346 1.291 3.503-.054 4.819-11.162 10.952-26.183 17.073-41.82 17.044z" fill="#323c6b"/><path d="m466.25 360.725v13.341c0 19.924-16.151 36.075-36.075 36.075h-127.555c-2.287-.007-4.535-.592-6.534-1.702l-285.672-163.426c-2.596-1.458-3.518-4.745-2.06-7.34.028-.049.056-.098.086-.147l20.76-34.577c1.494-2.554 4.775-3.413 7.329-1.919.008.004.015.009.023.013l272.739 159.682z" fill="#eeefee"/><path d="m430.175 413.544h-127.555c-2.858-.008-5.668-.739-8.168-2.124l-285.726-163.453c-4.224-2.382-5.717-7.738-3.334-11.961.04-.07.08-.14.122-.209l20.767-34.598c1.163-1.999 3.081-3.446 5.323-4.016 2.263-.595 4.67-.259 6.684.932l271.923 159.206h156.039c1.88 0 3.403 1.524 3.403 3.403v13.341c-.022 21.795-17.684 39.457-39.478 39.479zm-396.346-209.847c-.691-.002-1.333.36-1.688.953l-20.78 34.625c-.28.469-.361 1.03-.225 1.559.14.513.481.948.946 1.205l285.692 163.473c1.485.817 3.151 1.248 4.846 1.252h127.555c18.036-.019 32.653-14.635 32.672-32.672v-9.965h-153.556c-.603 0-1.195-.159-1.715-.463l-272.74-159.687c-.304-.183-.652-.279-1.007-.28z" fill="#323c6b"/><path d="m445.83 360.725c-.127 19.827-16.248 35.825-36.075 35.803h-127.555c-2.287-.007-4.535-.592-6.534-1.702l-267.825-153.216c.347 1.443 1.279 2.676 2.573 3.403l285.672 163.426c2 1.11 4.247 1.695 6.534 1.702h127.555c19.924 0 36.075-16.151 36.075-36.075v-13.341z" fill="#dbd8dd"/><path d="m155.571 69.88c-.597 0-1.184-.157-1.702-.456l-1.851-1.075c-1.586-1.008-2.055-3.112-1.046-4.698.949-1.492 2.883-2.01 4.45-1.19l1.851 1.075c1.628.94 2.185 3.021 1.245 4.649-.609 1.055-1.736 1.704-2.954 1.701z" fill="#323c6b"/><path d="m142.094 62.066c-.597 0-1.184-.157-1.702-.456l-25.116-14.573-8.039 13.103c-.983 1.603-3.08 2.106-4.683 1.123s-2.106-3.08-1.123-4.683l9.774-15.9c.966-1.574 3.011-2.09 4.608-1.164l27.989 16.206c1.628.94 2.185 3.021 1.245 4.649-.609 1.055-1.736 1.704-2.954 1.701z" fill="#323c6b"/><path d="m186.16 120.317-7.419 43.494-83.517-51.594 25.865-42.133 57.856 33.556c5.785 3.391 8.705 10.14 7.215 16.677z" fill="#eeefee"/><path d="m178.741 167.214c-.633 0-1.252-.177-1.79-.51l-83.517-51.594c-1.598-.984-2.097-3.076-1.116-4.676l25.865-42.133c.966-1.574 3.011-2.09 4.608-1.164l57.856 33.556c7.056 4.106 10.636 12.311 8.849 20.277l-7.406 43.406c-.279 1.636-1.696 2.832-3.356 2.832zm-78.841-56.106 76.329 47.156 6.575-38.518.034-.184c1.171-5.091-1.107-10.352-5.622-12.98l-54.963-31.868z" fill="#323c6b"/><path d="m134.089 216.902-2.246 39.955-92.297-54.044 37.232-60.578 31.923 22.326c16.957 11.872 26.562 31.674 25.388 52.341z" fill="#eeefee"/><path d="m131.843 260.26c-.603 0-1.195-.159-1.715-.463l-92.297-54.044c-1.621-.951-2.164-3.036-1.213-4.658.012-.02.024-.04.036-.059l37.232-60.578c.985-1.601 3.081-2.1 4.682-1.115.056.034.111.07.164.108l31.916 22.326c17.986 12.493 28.16 33.457 26.845 55.317l-2.246 39.955c-.102 1.803-1.596 3.214-3.404 3.211zm-87.6-58.625 84.497 49.477 1.933-34.394c1.174-19.504-7.9-38.21-23.946-49.361l-28.962-20.256z" fill="#323c6b"/><path d="m466.25 333.771v26.954h-156.96l-66.909-39.138-46.217-27.09-43.086-25.252-21.236-12.388 2.246-39.955c1.174-20.667-8.432-40.47-25.388-52.343l-31.923-22.326 18.446-30.017 83.517 51.594 81.475-37.164c6.151-2.819 13.423-.118 16.243 6.033.738 1.609 1.118 3.36 1.114 5.13v17.289l-33.897 23.278 82.36 108.973 26.409-8.032h59.353c30.074.001 54.453 24.381 54.453 54.454z" fill="#9a9eaf"/><path d="m466.25 364.128h-156.96c-.603 0-1.195-.159-1.715-.463l-177.447-103.868c-1.104-.645-1.754-1.854-1.681-3.131l2.246-39.955c1.174-19.504-7.9-38.21-23.946-49.361l-31.916-22.326c-1.473-1.033-1.888-3.034-.946-4.567l18.446-30.017c.984-1.601 3.08-2.101 4.682-1.117 0 0 .001.001.001.001l81.999 50.634 79.821-36.408c7.869-3.582 17.152-.108 20.735 7.761.929 2.04 1.409 4.257 1.407 6.498v17.289c0 1.121-.553 2.17-1.477 2.804l-30.963 21.264 78.779 104.236 24.136-7.344c.323-.096.657-.144.994-.143h59.353c31.937.038 57.818 25.918 57.856 57.856v26.954c-.001 1.88-1.524 3.403-3.404 3.403zm-156.041-6.806h152.637v-23.551c-.03-28.181-22.868-51.019-51.049-51.049h-58.85l-25.926 7.889c-1.368.416-2.85-.068-3.71-1.212l-82.359-108.973c-1.131-1.501-.832-3.635.669-4.766.04-.03.08-.059.121-.087l32.427-22.264v-15.499c.014-4.887-3.936-8.86-8.823-8.874-1.29-.004-2.564.274-3.735.815l-81.461 37.157c-1.034.47-2.234.393-3.199-.204l-80.61-49.79-14.974 24.381 29.268 20.488c17.989 12.488 28.168 33.45 26.859 55.31l-2.124 37.872z" fill="#323c6b"/><path d="m257.152 137.81v17.289l-33.897 23.278 87.662 117.073 16.601-5.05-83.843-112.023 33.897-23.278v-17.289c.014-6.766-5.46-12.263-12.227-12.277-1.77-.004-3.521.376-5.13 1.114l-6.303 2.872c2.095 2.251 3.254 5.216 3.24 8.291z" fill="#828a9e"/><path d="m411.798 279.318h-20.42c30.073 0 54.453 24.379 54.453 54.453v26.954h20.42v-26.954c-.001-30.073-24.38-54.453-54.453-54.453z" fill="#828a9e"/><path d="m170.178 171.353 11.748-5.357-86.702-53.779-5.622 9.141z" fill="#828a9e"/><path d="m352.444 279.318-26.409 8.032-82.36-108.973 33.897-23.278z" fill="#eeefee"/><g fill="#323c6b"><path d="m326.035 290.754c-1.071 0-2.08-.504-2.723-1.361l-82.359-108.966c-1.131-1.501-.832-3.635.669-4.766.04-.03.08-.059.121-.087l33.924-23.265c1.55-1.063 3.668-.669 4.732.881.038.055.074.111.108.167l74.872 124.22c.972 1.609.455 3.701-1.154 4.673-.242.146-.502.262-.772.344l-26.41 8.032c-.328.091-.668.135-1.008.128zm-77.5-111.587 78.779 104.236 19.957-6.071-70.747-117.386z"/><path d="m153.087 272.668c-1.88 0-3.403-1.524-3.403-3.403 0-1.013.452-1.974 1.232-2.62l51.921-42.963c1.449-1.199 3.596-.997 4.795.453 1.199 1.449.997 3.596-.453 4.795l-51.921 42.956c-.611.506-1.379.782-2.171.782z"/><path d="m196.172 297.894c-1.88-.004-3.4-1.53-3.397-3.41.002-.993.437-1.935 1.191-2.58l40.778-34.775c1.468-1.173 3.61-.934 4.783.534 1.122 1.404.959 3.438-.373 4.646l-40.778 34.775c-.614.523-1.396.81-2.204.81z"/><path d="m242.416 324.97c-1.88-.002-3.401-1.528-3.399-3.408.001-.943.394-1.844 1.085-2.487l29.105-27.077c1.35-1.308 3.504-1.274 4.812.075 1.308 1.35 1.274 3.504-.075 4.812-.033.032-.067.064-.102.095l-29.105 27.077c-.63.588-1.46.914-2.321.913z"/><path d="m209.03 413.537h-205.627c-1.88 0-3.403-1.524-3.403-3.403s1.524-3.403 3.403-3.403h205.627c1.88 0 3.403 1.524 3.403 3.403s-1.524 3.403-3.403 3.403z"/><path d="m118.21 362.679h-114.807c-1.88 0-3.403-1.524-3.403-3.403s1.524-3.403 3.403-3.403h114.807c1.88 0 3.403 1.524 3.403 3.403s-1.524 3.403-3.403 3.403z"/><path d="m52.084 313.624h-48.681c-1.879 0-3.403-1.524-3.403-3.404s1.524-3.403 3.403-3.403h48.681c1.88 0 3.403 1.524 3.403 3.403s-1.524 3.404-3.403 3.404z"/><path d="m466.25 364.128h-156.96c-.603 0-1.195-.159-1.715-.463l-177.447-103.868c-1.104-.645-1.754-1.854-1.681-3.131l2.246-39.955c1.174-19.504-7.9-38.21-23.946-49.361l-31.916-22.326c-1.473-1.033-1.888-3.034-.946-4.567l18.446-30.017c.984-1.601 3.08-2.101 4.682-1.117 0 0 .001.001.001.001l81.999 50.634 79.821-36.408c7.869-3.582 17.152-.108 20.735 7.761.929 2.04 1.409 4.257 1.407 6.498v17.289c0 1.121-.553 2.17-1.477 2.804l-30.963 21.264 78.779 104.236 24.136-7.344c.323-.096.657-.144.994-.143h59.353c31.937.038 57.818 25.918 57.856 57.856v26.954c-.001 1.88-1.524 3.403-3.404 3.403zm-156.041-6.806h152.637v-23.551c-.03-28.181-22.868-51.019-51.049-51.049h-58.85l-25.926 7.889c-1.368.416-2.85-.068-3.71-1.212l-82.359-108.973c-1.131-1.501-.832-3.635.669-4.766.04-.03.08-.059.121-.087l32.427-22.264v-15.499c.014-4.887-3.936-8.86-8.823-8.874-1.29-.004-2.564.274-3.735.815l-81.461 37.157c-1.034.47-2.234.393-3.199-.204l-80.61-49.79-14.974 24.381 29.268 20.488c17.989 12.488 28.168 33.45 26.859 55.31l-2.124 37.872z"/><path d="m430.175 413.544h-127.555c-2.858-.008-5.668-.739-8.168-2.124l-285.726-163.453c-4.224-2.382-5.717-7.738-3.334-11.961.04-.07.08-.14.122-.209l20.767-34.598c1.163-1.999 3.081-3.446 5.323-4.016 2.263-.595 4.67-.259 6.684.932l271.923 159.206h156.039c1.88 0 3.403 1.524 3.403 3.403v13.341c-.022 21.795-17.684 39.457-39.478 39.479zm-396.346-209.847c-.691-.002-1.333.36-1.688.953l-20.78 34.625c-.28.469-.361 1.03-.225 1.559.14.513.481.948.946 1.205l285.692 163.473c1.485.817 3.151 1.248 4.846 1.252h127.555c18.036-.019 32.653-14.635 32.672-32.672v-9.965h-153.556c-.603 0-1.195-.159-1.715-.463l-272.74-159.687c-.304-.183-.652-.279-1.007-.28z"/></g><path d="m415.881 347.405h-61.559c-3.119.178-5.796-2.198-5.99-5.316.186-3.12 2.855-5.506 5.976-5.343h61.572c3.098-.21 5.779 2.132 5.989 5.23 0 .004 0 .008.001.011-.175 3.141-2.845 5.557-5.989 5.418z" fill="#eeefee"/><path d="m333.311 347.405h-3.192c-3.112.194-5.793-2.17-5.99-5.282.19-3.126 2.862-5.516 5.99-5.357h3.199c3.128-.159 5.8 2.231 5.99 5.357-.201 3.113-2.884 5.476-5.997 5.282z" fill="#eeefee"/></g></svg>