<?xml version="1.0"?>
<svg xmlns="http://www.w3.org/2000/svg" viewBox="0 0 128 128" width="512" height="512"><g id="number"><text transform="translate(60.261 -738.265)" font-size="40" fill="#24253a" font-family="MyriadPro-Regular, Myriad Pro" letter-spacing="0.002em">9<tspan x="-10.3" y="228">19</tspan><tspan x="-10.3" y="456">29</tspan><tspan x="-10.3" y="684">39</tspan><tspan x="-10.3" y="912">49</tspan><tspan x="-10.3" y="1140">59</tspan><tspan x="-10.3" y="1368">69</tspan><tspan x="-10.3" y="1596">79</tspan><tspan x="-10.3" y="1824">89</tspan><tspan x="-10.3" y="2052">99</tspan><tspan x="-20.599" y="2280">109</tspan><tspan x="-20.599" y="2508">119</tspan><tspan x="-20.599" y="2736">129</tspan><tspan x="-20.599" y="2964">139</tspan><tspan x="-20.599" y="3192">149</tspan><tspan x="-20.599" y="3420">159</tspan><tspan x="-20.599" y="3648">169</tspan><tspan x="-20.599" y="3876">179</tspan><tspan x="-20.599" y="4104">189</tspan><tspan x="-20.599" y="4332">199</tspan><tspan x="-20.599" y="4560">209</tspan><tspan x="-20.599" y="4788">219</tspan><tspan x="-20.599" y="5016">229</tspan><tspan x="-20.599" y="5244">239</tspan><tspan x="-20.599" y="5472">249</tspan></text></g><g id="icon"><path d="M53.216,1C43.3.721,28.593,31.087,28.593,62.934S42.688,127,53.216,127c10.632,0,24.622-32.219,24.622-64.066S63.655,1.3,53.216,1Z" fill="#ef5361"/><path d="M77.838,62.931C77.838,94.784,63.843,127,53.215,127c-6,0-13.156-10.456-18.2-25.351,4.52,9.748,9.859,16.017,14.5,16.017,10.638,0,24.622-32.217,24.622-64.069a115.4,115.4,0,0,0-5.885-36.11C73.7,29.157,77.838,45.751,77.838,62.931Z" fill="#da2a47"/><path d="M53.216,128c-11.973,0-25.622-34.661-25.622-65.066,0-25.875,9.459-50.53,18.6-59.419C48.661,1.121,51.045-.048,53.244,0h0C64.42.32,78.838,30.894,78.838,62.934a123.725,123.725,0,0,1-8.4,44.348C65.239,120.255,58.8,128,53.216,128ZM53.081,2c-1.607,0-3.5,1.017-5.489,2.949-8.656,8.414-18,32.975-18,57.985C29.594,94.22,43.337,126,53.216,126S76.838,94.22,76.838,62.934C76.838,30.251,62.312,2.261,53.188,2Z" fill="#2f3a5a"/><circle cx="53.215" cy="64" r="14.569" fill="#9297ab"/><path d="M65.117,55.6A14.568,14.568,0,0,0,48.8,77.886,14.57,14.57,0,1,1,65.117,55.6Z" fill="#707583"/><path d="M53.215,79.569A15.569,15.569,0,1,1,68.785,64,15.587,15.587,0,0,1,53.215,79.569Zm0-29.139A13.569,13.569,0,1,0,66.785,64,13.584,13.584,0,0,0,53.215,50.431Z" fill="#2f3a5a"/><rect x="89.037" y="38.619" width="5.591" height="50.762" fill="#f0f5f9"/><path d="M94.628,90.381H89.037a1,1,0,0,1-1-1V38.619a1,1,0,0,1,1-1h5.591a1,1,0,0,1,1,1V89.381A1,1,0,0,1,94.628,90.381Zm-4.591-2h3.591V39.619H90.037Z" fill="#2f3a5a"/><polygon points="99.773 1.005 83.892 1.005 83.892 23.397 89.037 28.894 89.037 38.619 94.628 38.619 94.628 28.894 99.773 23.397 99.773 1.005" fill="#ffa245"/><polygon points="99.776 1 99.776 23.398 94.633 28.891 94.633 38.616 94.633 38.341 94.633 28.891 95.948 26.951 95.948 4.563 83.89 4.563 83.89 1 99.776 1" fill="#f28623"/><path d="M94.628,39.619H89.037a1,1,0,0,1-1-1v-9.33L83.162,24.08a1,1,0,0,1-.27-.683V1.005a1,1,0,0,1,1-1H99.773a1,1,0,0,1,1,1V23.4a1,1,0,0,1-.27.684l-4.876,5.208v9.33A1,1,0,0,1,94.628,39.619Zm-4.591-2h3.591V28.894a1,1,0,0,1,.27-.684L98.773,23v-21H84.893V23l4.875,5.209a1,1,0,0,1,.27.683Z" fill="#2f3a5a"/><polygon points="83.892 126.995 99.773 126.995 99.773 104.603 94.628 99.106 94.628 89.381 89.037 89.381 89.037 99.106 83.892 104.603 83.892 126.995" fill="#ffa245"/><polygon points="83.89 127 83.89 104.602 89.033 99.109 89.033 89.384 89.033 89.659 89.033 99.109 87.718 101.049 87.718 123.437 99.776 123.437 99.776 127 83.89 127" fill="#f28623"/><path d="M99.773,127.995H83.893a1,1,0,0,1-1-1V104.6a1,1,0,0,1,.27-.683l4.875-5.209v-9.33a1,1,0,0,1,1-1h5.591a1,1,0,0,1,1,1v9.33l4.876,5.208a1,1,0,0,1,.27.684v22.392A1,1,0,0,1,99.773,127.995Zm-14.881-2H98.773V105L93.9,99.79a1,1,0,0,1-.27-.684V90.381H90.037v8.725a1,1,0,0,1-.27.683L84.893,105Z" fill="#2f3a5a"/></g></svg>
